<svg xmlns="http://www.w3.org/2000/svg" width="30" height="30" viewBox="0 0 30 30"><path fill="#fff" fill-rule="evenodd" d="M14.813 11.99l.039.649-.656-.079c-2.387-.305-4.472-1.337-6.243-3.072l-.866-.861-.223.636c-.472 1.417-.17 2.913.813 3.919.525.556.407.636-.498.305-.315-.106-.59-.185-.616-.146-.092.093.223 1.298.472 1.774.341.662 1.036 1.311 1.797 1.695l.643.305-.761.013c-.734 0-.761.013-.682.291.262.861 1.298 1.774 2.453 2.171l.813.278-.708.424c-1.049.609-2.282.953-3.515.98-.59.013-1.075.066-1.075.106 0 .132 1.6.874 2.531 1.165 2.794.861 6.112.49 8.604-.98 1.771-1.046 3.541-3.125 4.367-5.137.446-1.072.892-3.032.892-3.972 0-.609.039-.689.774-1.417.433-.424.839-.887.918-1.02.131-.252.118-.252-.551-.026-1.115.397-1.272.344-.721-.252.407-.424.892-1.192.892-1.417 0-.04-.197.026-.42.146-.236.132-.761.331-1.154.45l-.708.225-.643-.437c-.354-.238-.852-.503-1.115-.583-.669-.185-1.692-.159-2.295.053-1.639.596-2.676 2.132-2.557 3.813z"/></svg>