<svg xmlns="http://www.w3.org/2000/svg" width="30" height="30" viewBox="0 0 30 30"><path fill="#fff" fill-rule="evenodd" d="M24.025 15c0 .609-.062 1.218-.184 1.811-.119.579-.295 1.148-.525 1.691-.225.534-.505 1.049-.831 1.528-.322.477-.692.924-1.099 1.332-.408.406-.857.776-1.333 1.099-.481.324-.997.603-1.531.83-.544.229-1.114.405-1.693.524-.594.122-1.205.185-1.815.185-.611 0-1.222-.062-1.815-.185-.58-.119-1.149-.294-1.693-.524-.534-.226-1.05-.505-1.532-.83-.477-.323-.925-.693-1.333-1.099-.408-.408-.778-.855-1.1-1.332-.325-.48-.605-.994-.831-1.528-.231-.544-.407-1.112-.526-1.691-.121-.593-.182-1.202-.182-1.811 0-.61.062-1.22.182-1.812.119-.579.296-1.149.526-1.691.226-.534.506-1.049.831-1.529.322-.477.693-.924 1.1-1.332.407-.406.856-.775 1.333-1.097.481-.326.997-.605 1.532-.831.544-.23 1.114-.406 1.693-.524.593-.121 1.204-.183 1.815-.183.61 0 1.221.062 1.815.183.579.118 1.149.294 1.693.524.534.227 1.05.506 1.531.831.477.323.926.691 1.333 1.097.407.408.778.855 1.099 1.332.327.48.606.995.831 1.529.231.543.407 1.112.525 1.691.122.592.184 1.202.184 1.812zm-12.297-6.952c-2.146 1.012-3.748 2.987-4.248 5.367.203.002 3.41.042 7.106-.938-1.332-2.363-2.755-4.292-2.858-4.429zm3.496 5.612c-3.963 1.185-7.766 1.099-7.902 1.094l-.006.245c0 1.974.746 3.774 1.972 5.135-.003-.004 2.104-3.735 6.257-5.077l.304-.092c-.193-.437-.404-.874-.624-1.306zm4.871-4.429c-1.355-1.193-3.134-1.917-5.083-1.917-.625 0-1.232.076-1.814.215.115.155 1.561 2.07 2.877 4.483 2.904-1.087 4-2.754 4.019-2.782zm-3.722 7.008l-.051.017c-4.541 1.581-6.024 4.767-6.04 4.801 1.307 1.015 2.946 1.627 4.731 1.627 1.066 0 2.081-.217 3.005-.609-.114-.671-.561-3.025-1.644-5.836zm2.94 5.134c1.728-1.165 2.956-3.014 3.298-5.156-.158-.051-2.312-.732-4.796-.334 1.01 2.77 1.42 5.026 1.498 5.49zm-2.645-8.215c.179.367.352.74.511 1.114l.166.398c2.644-.332 5.249.227 5.36.25-.018-1.822-.67-3.494-1.75-4.803-.015.021-1.249 1.802-4.288 3.041z"/></svg>