<svg xmlns="http://www.w3.org/2000/svg" width="30" height="30" viewBox="0 0 30 30"><path fill="#fff" fill-rule="evenodd" d="M10.805 12.204h-3.593v10.796h3.593v-10.796zm.237-3.339c-.023-1.058-.78-1.865-2.009-1.865-1.229 0-2.033.806-2.033 1.865 0 1.037.78 1.866 1.986 1.866h.023c1.253 0 2.033-.829 2.033-1.866zm12.721 7.945c0-3.316-1.773-4.859-4.137-4.859-1.908 0-2.762 1.048-3.239 1.783v-1.529h-3.593c.047 1.013 0 10.796 0 10.796h3.593v-6.029c0-.323.023-.644.118-.875.26-.645.851-1.312 1.844-1.312 1.301 0 1.821.99 1.821 2.441v5.776h3.593v-6.19z"/></svg>