<svg xmlns="http://www.w3.org/2000/svg" width="30" height="30" viewBox="0 0 30 30"><path fill="#fff" fill-rule="evenodd" d="M9.184 15.169c.764 1.362 2.238 2.209 4.724 2.443-.355.264-.781.766-.84 1.346-.446.283-1.343.377-2.041.161-.977-.303-1.352-2.202-2.815-1.931-.317.059-.254.264.02.438.446.283.866.638 1.19 1.392.249.579.772 1.615 2.425 1.615.656 0 1.116-.077 1.116-.077s.013 1.479.013 2.054c0 .663-.912.85-.912 1.169 0 .126.302.138.544.138.479 0 1.477-.392 1.477-1.082l.009-2.71c0-.704.385-.927.385-.927s.048 3.758-.092 4.262c-.164.592-.459.508-.459.773 0 .393 1.2.096 1.598-.766.308-.672.173-4.358.173-4.358l.328-.007s.018 1.688.007 2.459c-.012.799-.067 1.809.417 2.286.318.313 1.347.863 1.347.361 0-.292-.564-.532-.564-1.322v-3.635c.45 0 .383 1.195.383 1.195l.033 2.221s-.099.809.892 1.148c.35.12 1.098.152 1.133-.049.035-.202-.901-.502-.91-1.129-.005-.382.017-.605.017-2.266s-.227-2.275-1.019-2.764c2.445-.247 3.957-.84 4.695-2.43.058.002.3-.742.269-.742.165-.6.255-1.31.272-2.15-.004-2.279-1.116-3.085-1.33-3.464.315-1.725-.052-2.511-.223-2.78-.63-.22-2.192.566-3.044 1.119-1.391-.399-4.331-.361-5.433.103-2.034-1.429-3.11-1.21-3.11-1.21s-.696 1.223-.184 3.013c-.669.837-1.168 1.429-1.168 2.999 0 .884.106 1.676.345 2.367-.029 0 .321.74.331.74z"/></svg>